<svg width="91" height="60" viewBox="0 0 91 60" fill="none" xmlns="http://www.w3.org/2000/svg">
<g id="35">
<path d="M20.2752 59.0799C16.3285 59.0799 12.5152 58.5199 8.83516 57.3999C5.20849 56.2799 2.27516 54.7333 0.0351562 52.7599L3.95516 43.4799C6.35516 45.2399 8.88849 46.5733 11.5552 47.4799C14.2218 48.3333 16.9685 48.7599 19.7952 48.7599C23.1018 48.7599 25.5818 48.1466 27.2352 46.9199C28.8885 45.6933 29.7152 43.8799 29.7152 41.4799C29.7152 39.2399 28.9152 37.5599 27.3152 36.4399C25.7685 35.2666 23.4485 34.6799 20.3552 34.6799H10.9152V24.8399H19.2352C21.9018 24.8399 24.0352 24.2266 25.6352 22.9999C27.2352 21.7199 28.0352 19.9866 28.0352 17.7999C28.0352 15.6666 27.2885 14.0399 25.7952 12.9199C24.3018 11.7999 22.1418 11.2399 19.3152 11.2399C13.9285 11.2399 9.12849 13.0266 4.91516 16.5999L0.915156 7.47992C3.31516 5.39992 6.22182 3.79992 9.63516 2.67992C13.1018 1.50659 16.7285 0.919922 20.5152 0.919922C26.5952 0.919922 31.3418 2.27992 34.7552 4.99992C38.2218 7.66659 39.9552 11.3999 39.9552 16.1999C39.9552 19.5066 39.0218 22.3599 37.1552 24.7599C35.2885 27.1066 32.7285 28.6799 29.4752 29.4799V28.4399C33.3152 29.0799 36.3018 30.6533 38.4352 33.1599C40.5685 35.6666 41.6352 38.8133 41.6352 42.5999C41.6352 47.7199 39.7152 51.7466 35.8752 54.6799C32.0885 57.6133 26.8885 59.0799 20.2752 59.0799Z" fill="#FFB342"/>
<path d="M69.4439 59.0799C66.9372 59.0799 64.4572 58.8133 62.0039 58.2799C59.5506 57.7466 57.2572 57.0266 55.1239 56.1199C52.9906 55.1599 51.2039 54.0399 49.7639 52.7599L53.6839 43.4799C56.0839 45.1866 58.5906 46.4933 61.2039 47.3999C63.8172 48.3066 66.4839 48.7599 69.2039 48.7599C72.2972 48.7599 74.6972 48.0399 76.4039 46.5999C78.1639 45.1066 79.0439 43.0799 79.0439 40.5199C79.0439 37.9599 78.2172 35.9066 76.5639 34.3599C74.9106 32.8133 72.6439 32.0399 69.7639 32.0399C67.7372 32.0399 65.8439 32.4133 64.0839 33.1599C62.3772 33.9066 60.8306 35.0533 59.4439 36.5999H51.4439V1.79992H87.4439V11.9599H63.2039V27.2399H60.3239C61.6572 25.5866 63.4172 24.3066 65.6039 23.3999C67.7906 22.4933 70.2439 22.0399 72.9639 22.0399C76.5906 22.0399 79.7372 22.8133 82.4039 24.3599C85.1239 25.8533 87.2306 27.9599 88.7239 30.6799C90.2172 33.3466 90.9639 36.4933 90.9639 40.1199C90.9639 43.8533 90.0839 47.1599 88.3239 50.0399C86.6172 52.8666 84.1372 55.0799 80.8839 56.6799C77.6839 58.2799 73.8706 59.0799 69.4439 59.0799Z" fill="#FFB342"/>
</g>
</svg>
