<svg width="37" height="43" viewBox="0 0 37 43" fill="none" xmlns="http://www.w3.org/2000/svg">
<g id="Icon">
<path id="Vector" d="M23.4004 4.92933L18.5776 2.11621L13.7549 4.92933" stroke="white" stroke-width="3" stroke-linecap="round" stroke-linejoin="round"/>
<path id="Vector_2" d="M18.5781 2.11621V9.14902" stroke="white" stroke-width="3" stroke-miterlimit="10" stroke-linecap="round"/>
<path id="Vector_3" d="M13.7549 38.6865L18.5776 41.4996L23.4004 38.6865" stroke="white" stroke-width="3" stroke-linecap="round" stroke-linejoin="round"/>
<path id="Vector_4" d="M18.5781 41.5001V34.4673" stroke="white" stroke-width="3" stroke-miterlimit="10" stroke-linecap="round"/>
<path id="Vector_5" d="M35.457 17.5451V11.9619L30.7846 9.19189" stroke="white" stroke-width="3" stroke-linecap="round" stroke-linejoin="round"/>
<path id="Vector_6" d="M35.457 11.9624L29.5416 15.4788" stroke="white" stroke-width="3" stroke-miterlimit="10" stroke-linecap="round"/>
<path id="Vector_7" d="M1.69867 26.0713V31.6545L6.37109 34.4245" stroke="white" stroke-width="3" stroke-linecap="round" stroke-linejoin="round"/>
<path id="Vector_8" d="M1.69976 31.6541L7.61523 28.1377" stroke="white" stroke-width="3" stroke-miterlimit="10" stroke-linecap="round"/>
<path id="Vector_9" d="M30.7846 34.4676L35.457 31.6545V26.0713" stroke="white" stroke-width="3" stroke-linecap="round" stroke-linejoin="round"/>
<path id="Vector_10" d="M35.457 31.6541L29.5987 28.1377" stroke="white" stroke-width="3" stroke-miterlimit="10" stroke-linecap="round"/>
<path id="Vector_11" d="M6.37109 9.19189L1.69867 11.9619V17.5451" stroke="white" stroke-width="3" stroke-linecap="round" stroke-linejoin="round"/>
<path id="Vector_12" d="M1.69891 11.9624L7.61438 15.4788M18.5776 27.4346V21.8083M18.5776 21.8083L13.7549 18.9952M18.5776 21.8083L23.4004 18.9952" stroke="white" stroke-width="3" stroke-miterlimit="10" stroke-linecap="round"/>
</g>
</svg>
